<svg xmlns="http://www.w3.org/2000/svg" width="52.257" height="52.257" viewBox="0 0 52.257 52.257"><path fill="#a39c8c" d="M26.13 0a26.129 26.129 0 1 0 10.367 50.094 9.667 9.667 0 0 0 13.6-13.6A26.1 26.1 0 0 0 26.13-.006Zm0 1.3a24.438 24.438 0 0 1 22.863 34.047 9.7 9.7 0 0 0-1.513-1.1 22.8 22.8 0 0 0 1.485-8.068 22.828 22.828 0 1 0-14.721 21.3 9.7 9.7 0 0 0 1.1 1.518 24.753 24.753 0 1 1-9.218-47.7Zm.043 3.379a21.244 21.244 0 0 1 20.05 28.943 9.673 9.673 0 0 0-12.6 12.6 21.447 21.447 0 1 1-7.45-41.542Zm2.966 2.566a3.313 3.313 0 1 0 .17 0q-.088-.002-.172-.001Zm.024 1.3h.1a2 2 0 1 1-.1 0m-7 .951a2.762 2.762 0 1 0 .071 0Zm-.047 1.3h.076a1.476 1.476 0 1 1-.076 0m-8.244 1.612a3.307 3.307 0 1 0 1.644.443 3.3 3.3 0 0 0-1.645-.444Zm22.18.94a2.74 2.74 0 0 0-1.257.3 2.774 2.774 0 1 0 1.257-.3m-22.237.354a2 2 0 0 1 1.052.274 2 2 0 1 1-1.052-.274m22.276.94a1.474 1.474 0 1 1-.705.164 1.5 1.5 0 0 1 .705-.164m-10.9 2.248a1.942 1.942 0 1 0 .1 0q-.053-.004-.102-.003Zm15.759 1.272a3.3 3.3 0 0 0-1.5.359 3.314 3.314 0 1 0 1.5-.359m-15.734.027h.034a.651.651 0 1 1-.034 0m15.689 1.267a2.021 2.021 0 1 1-.869.223 2 2 0 0 1 .866-.224Zm-28.861.521a2.763 2.763 0 1 0 1.373.368 2.74 2.74 0 0 0-1.376-.369Zm19.733.058a1.9 1.9 0 0 0-.885.211 1.958 1.958 0 1 0 .885-.211m-12.536 1.152a1.948 1.948 0 1 0 1.012.259 1.9 1.9 0 0 0-1.012-.259m-7.243.086a1.469 1.469 0 1 1-1.238.736 1.47 1.47 0 0 1 1.238-.736m19.8.058a.651.651 0 0 1 .275 1.232.65.65 0 0 1-.59-1.158.66.66 0 0 1 .309-.077Zm-12.527 1.146a.656.656 0 1 1-.547.33.65.65 0 0 1 .542-.333Zm20.217 4.635a2.762 2.762 0 1 0 1.487.443 2.77 2.77 0 0 0-1.492-.446Zm-7.224.051a1.942 1.942 0 1 0 1.048.311 1.93 1.93 0 0 0-1.053-.314Zm-21.28.74a3.3 3.3 0 0 0-1.643.441 3.313 3.313 0 1 0 1.643-.441m9.085.373a1.9 1.9 0 0 0-.92.256 1.957 1.957 0 1 0 .92-.256m19.373.129a1.471 1.471 0 1 1-1.2.672 1.47 1.47 0 0 1 1.194-.675Zm-7.205.051a.66.66 0 0 1 .368.108.644.644 0 1 1-.368-.108m-21.293.741a2.02 2.02 0 1 1-.953.273 2 2 0 0 1 .947-.277Zm9.166.372a.651.651 0 0 1 .339 1.215.65.65 0 0 1-.65-1.126.66.66 0 0 1 .305-.093Zm6.52 1.518a1.971 1.971 0 1 0 .051 0Zm.051 1.3a.65.65 0 0 1 0 1.3.65.65 0 1 1 0-1.3m-10.532 1.151a2.73 2.73 0 0 0-1.373.368 2.768 2.768 0 1 0 1.373-.368m26.439.671q.237 0 .472.014h.007c.044 0 .088.008.132.011q.168.01.334.029l.167.023q.15.02.3.046l.145.027q.171.032.341.071l.118.029q.167.042.332.09l.138.042q.15.046.3.1l.161.057q.15.057.3.121l.128.053q.209.092.414.2a8.4 8.4 0 0 1 2.48 1.915l.016.013a8.377 8.377 0 0 1-11.767 11.872 1 1 0 0 0-.063-.071 8.4 8.4 0 0 1-2.375-3.557l-.056-.167q-.038-.122-.074-.245c-.036-.123-.041-.146-.06-.219a7 7 0 0 1-.109-.484 6 6 0 0 1-.077-.471l-.024-.176a9 9 0 0 1-.029-.327c0-.047-.009-.095-.011-.142q-.013-.235-.014-.472 0-.217.011-.431a8.367 8.367 0 0 1 8.364-7.945Zm-26.395.622a1.473 1.473 0 1 1-.767.2 1.5 1.5 0 0 1 .766-.198Zm13.7 1.915a2.8 2.8 0 1 0 .071 0zm7.948.45a.647.647 0 0 0-.463 1.1l4.279 4.279-4.279 4.279a.65.65 0 0 0 0 .919.65.65 0 0 0 .919 0l4.279-4.279 4.279 4.279a.65.65 0 0 0 .919 0 .65.65 0 0 0 0-.919l-4.279-4.28 4.279-4.279a.65.65 0 0 0 0-.919.66.66 0 0 0-.921 0l-4.279 4.279-4.268-4.268a.65.65 0 0 0-.46-.188Zm-7.877.849a1.467 1.467 0 1 1-1.466 1.466 1.457 1.457 0 0 1 1.47-1.464Zm-7 .081a3.311 3.311 0 1 0 3.313 3.313 3.32 3.32 0 0 0-3.308-3.31Zm0 1.3a2.011 2.011 0 1 1-2.013 2.014 2.007 2.007 0 0 1 2.018-2.013Z"/></svg>