<svg xmlns="http://www.w3.org/2000/svg" width="48.212" height="48.147" viewBox="0 0 48.212 48.147"><g fill="#a39c8c" transform="translate(-17.289 -17.38)"><path d="M30.419 26.214h-1.056a.9.9 0 0 0 0 1.8h1.056a.9.9 0 1 0 0-1.8m-5.682 0h-1.056a.9.9 0 0 0 0 1.8h1.056a.9.9 0 1 0 0-1.8m2.313 2.315a.9.9 0 0 0-.9.9v1.056a.9.9 0 1 0 1.8 0v-1.056a.9.9 0 0 0-.9-.9m0-5.683a.9.9 0 0 0-.9.9v1.056a.9.9 0 0 0 1.8 0v-1.054a.9.9 0 0 0-.9-.902m34.839 34.392h-1.056a.9.9 0 0 0 0 1.8h1.056a.9.9 0 1 0 0-1.8m-5.681 0h-1.056a.9.9 0 1 0 0 1.8h1.056a.9.9 0 1 0 0-1.8m2.313 2.313a.9.9 0 0 0-.9.9v1.056a.9.9 0 0 0 1.8 0v-1.056a.9.9 0 0 0-.9-.9m0-5.681a.9.9 0 0 0-.9.9v1.057a.9.9 0 0 0 1.8 0v-1.055a.9.9 0 0 0-.9-.9ZM24.38 55.254a3.245 3.245 0 1 0 3.245 3.245 3.245 3.245 0 0 0-3.245-3.245m0 4.685a1.44 1.44 0 1 1 1.44-1.44 1.44 1.44 0 0 1-1.44 1.44m32.325-37.251a3.4 3.4 0 1 0 3.4 3.4 3.4 3.4 0 0 0-3.4-3.4m0 5a1.6 1.6 0 1 1 1.6-1.6 1.6 1.6 0 0 1-1.6 1.6"/><path d="M61.415 17.38H21.377a4.09 4.09 0 0 0-4.088 4.088v27.214a4.09 4.09 0 0 0 4.088 4.088H29.7a21 21 0 0 0 1.822 4.83l.416.769v5.214a1.947 1.947 0 0 0 1.945 1.945h14.985a1.947 1.947 0 0 0 1.945-1.945v-5.214l.413-.769a21 21 0 0 0 1.823-4.831h8.364a4.093 4.093 0 0 0 4.087-4.087V21.468a4.093 4.093 0 0 0-4.086-4.088Zm-12.407 46.2a.14.14 0 0 1-.14.14H33.883a.14.14 0 0 1-.14-.14v-4.534h15.265Zm.632-6.841-.268.5H33.378l-.268-.5a19.7 19.7 0 0 1-1.81-5.025l-.012-.059a23 23 0 0 1-.547-4.868v-7.2a1.47 1.47 0 0 1 1.264-1.5 1.405 1.405 0 0 1 1.547 1.4v5.032a.9.9 0 1 0 1.8 0V31.163a1.47 1.47 0 0 1 1.263-1.5 1.4 1.4 0 0 1 1.547 1.4v11.726a.9.9 0 0 0 1.8 0V28.5a1.47 1.47 0 0 1 1.274-1.5 1.405 1.405 0 0 1 1.547 1.4v14.39a.9.9 0 0 0 1.8 0V31.064a1.4 1.4 0 0 1 1.547-1.4 1.47 1.47 0 0 1 1.263 1.5v11.625a.9.9 0 1 0 1.8 0v-8.358a1.405 1.405 0 0 1 1.547-1.4 1.47 1.47 0 0 1 1.264 1.5v12.256a23 23 0 0 1-.547 4.867c0 .02-.009.041-.013.061a19.7 19.7 0 0 1-1.814 5.027Zm14.06-8.057a2.285 2.285 0 0 1-2.283 2.283H53.44a24.4 24.4 0 0 0 .374-4.177V34.53a3.29 3.29 0 0 0-2.9-3.294 3.2 3.2 0 0 0-1.717.309v-.384a3.29 3.29 0 0 0-2.9-3.294 3.2 3.2 0 0 0-1.724.314 3.21 3.21 0 0 0-3.515-2.98 3.28 3.28 0 0 0-2.884 2.983 3.25 3.25 0 0 0-1.732-.317 3.29 3.29 0 0 0-2.9 3.294v5.444a3.23 3.23 0 0 0-1.717-.309 3.29 3.29 0 0 0-2.9 3.294v7.2a24.4 24.4 0 0 0 .374 4.177h-7.922a2.285 2.285 0 0 1-2.283-2.283V21.468a2.286 2.286 0 0 1 2.283-2.283h40.038a2.286 2.286 0 0 1 2.285 2.283Z"/></g></svg>