<svg xmlns="http://www.w3.org/2000/svg" width="64.004" height="56.001" viewBox="0 0 64.004 56.001"><g transform="translate(0.002 -3.999)"><path d="M60.807,60H3.193A3.188,3.188,0,0,1,.435,55.21L29.241,5.587a3.191,3.191,0,0,1,5.518,0L63.565,55.21A3.189,3.189,0,0,1,60.807,60ZM32,6a1.167,1.167,0,0,0-1.028.592L2.165,56.214A1.188,1.188,0,0,0,3.193,58H60.806a1.189,1.189,0,0,0,1.029-1.786L33.028,6.591A1.167,1.167,0,0,0,32,6Z" fill="#a39c8c"/><path d="M59.4,56H4.6L32,8.8ZM8.074,54H55.926L32,12.787Z" fill="#a39c8c"/><path d="M32,45a6,6,0,1,1,6-6A6.006,6.006,0,0,1,32,45Zm0-10a4,4,0,1,0,4,4A4,4,0,0,0,32,35Z" fill="#a39c8c"/><path d="M31,31h2v3H31Z" fill="#a39c8c"/><path d="M32,32a3,3,0,1,1,3-3A3,3,0,0,1,32,32Zm0-4a1,1,0,1,0,1,1A1,1,0,0,0,32,28Z" fill="#a39c8c"/><path d="M31,44h2v3H31Z" fill="#a39c8c"/><path d="M32,52a3,3,0,1,1,3-3A3,3,0,0,1,32,52Zm0-4a1,1,0,1,0,1,1A1,1,0,0,0,32,48Z" fill="#a39c8c"/><path d="M37,38h3v2H37Z" fill="#a39c8c"/><path d="M42,42a3,3,0,1,1,3-3A3,3,0,0,1,42,42Zm0-4a1,1,0,1,0,1,1A1,1,0,0,0,42,38Z" fill="#a39c8c"/><path d="M24,38h3v2H24Z" fill="#a39c8c"/><path d="M22,42.25a3.26,3.26,0,0,1,0-6.5,3.26,3.26,0,0,1,0,6.5Zm0-4.5a1.281,1.281,0,0,0,0,2.5,1.281,1.281,0,0,0,0-2.5Z" fill="#a39c8c"/><path d="M35.511,32.99h3v2h-3Z" transform="translate(-13.194 36.126) rotate(-45)" fill="#a39c8c"/><path d="M25.489,43.011h3v2h-3Z" transform="translate(-23.215 31.975) rotate(-45)" fill="#a39c8c"/><path d="M36.011,42.51h2v3h-2Z" transform="translate(-20.279 39.054) rotate(-45)" fill="#a39c8c"/><path d="M25.989,32.489h2v3h-2Z" transform="translate(-16.129 29.035) rotate(-45)" fill="#a39c8c"/></g></svg>