<svg xmlns="http://www.w3.org/2000/svg" width="52" height="47.863" viewBox="0 0 52 47.863"><path fill="#a39c8c" d="M31.193 19.668a2.15 2.15 0 0 0 2.146-2.146v-5.789a2.15 2.15 0 0 0-2.146-2.146H10.049a2.15 2.15 0 0 0-2.151 2.146v5.788a2.15 2.15 0 0 0 2.146 2.146ZM9.534 17.521v-5.788a.52.52 0 0 1 .515-.515h21.144a.52.52 0 0 1 .515.515v5.788a.52.52 0 0 1-.515.515H10.049a.52.52 0 0 1-.515-.515m41.14 14.34a3 3 0 0 0-2.124-.88h-.125l-2.949-4.567a1.74 1.74 0 0 0-1.9-.747L42 24.091a5.1 5.1 0 0 0-3.632-1.5 5.3 5.3 0 0 0-.931.084v-1.24h1.761a2.04 2.04 0 0 0 2.039-2.039v-7.77a2.04 2.04 0 0 0-2.039-2.039h-1.757V5.221a.82.82 0 0 0-.408-.706 32.09 32.09 0 0 0-32.824 0 .82.82 0 0 0-.408.706v4.366H2.039a2.04 2.04 0 0 0-2.041 2.039v7.775a2.04 2.04 0 0 0 2.039 2.039h1.761v22.568a3.86 3.86 0 0 0 3.858 3.856h25.93a3.86 3.86 0 0 0 3.855-3.855V28.088l.648-.648a.41.41 0 0 1 .567 0l1.576 1.574a1.74 1.74 0 0 0 .747 1.9l4.569 2.948v.125a2.98 2.98 0 0 0 .88 2.124 5.82 5.82 0 0 0 4.02 1.326 7 7 0 0 0 .8-.039.816.816 0 0 0 .714-.714c.015-.129.355-3.18-1.287-4.822ZM2.039 19.809a.413.413 0 0 1-.408-.408v-7.775a.413.413 0 0 1 .408-.408h1.759v8.591Zm37.159-8.595a.413.413 0 0 1 .408.408v7.775a.413.413 0 0 1-.408.408h-1.757v-8.591ZM5.432 44.008V5.696a30.45 30.45 0 0 1 30.377 0v17.578a5 5 0 0 0-1.069.818l-3.28 3.28-.028-.028a1.44 1.44 0 0 0-2.031 0l-9.773 9.77a1.44 1.44 0 0 0 0 2.031l1.126 1.126-5.956 5.961H7.656a2.226 2.226 0 0 1-2.224-2.224m28.114-12.244-9.5 9.5-3.129-3.129 9.5-9.5Zm2.264 12.244a2.226 2.226 0 0 1-2.224 2.224H17.098l4.806-4.806 1.126 1.126a1.44 1.44 0 0 0 2.031 0l9.772-9.772a1.44 1.44 0 0 0 0-2.031l-.028-.028 1-1Zm2.563-18.313a2.02 2.02 0 0 0-1.437.592l-3.28 3.28-1.041-1.041 3.28-3.28a3.527 3.527 0 0 1 4.957 0l1.4 1.4-1.041 1.041-1.4-1.4a2.02 2.02 0 0 0-1.439-.592Zm3.491 3.846a.112.112 0 0 1-.019-.179l2.082-2.082a.11.11 0 0 1 .094-.035.11.11 0 0 1 .085.054l2.725 4.223a3 3 0 0 0-.4.339 3 3 0 0 0-.339.4Zm5.715 5.415a1.373 1.373 0 0 1 0-1.942 1.373 1.373 0 0 1 1.942 0 4.23 4.23 0 0 1 .851 2.792 4.23 4.23 0 0 1-2.794-.849Z"/></svg>